<svg xmlns="http://www.w3.org/2000/svg" xml:space="preserve" id="Layer_1" x="0" y="0" version="1.1" viewBox="0 0 226.41 140.17"><style>.st0{fill:#ee2b4a}</style><path d="M6.98 123.82c0 .59-.04 1.04-.07 1.31-.21 2.97-.26 4.97-.07 5.68.26.95.82 1.44 1.93 1.74.99.27 1.31.45 1.46 1 .2.75-.35 1.5-1.4 1.78l-2.77.7-2.69.79c-1.1.3-1.89-.02-2.12-.88-.14-.5-.03-.91.51-1.49.78-.91.92-1.17.98-2.15.09-1.26.21-3.18.33-5.69.24-5.24 1.05-12.57 1.96-17.72.57-3.44 1.26-6.43 1.93-8.34.32-1 .84-1.47 2.04-1.8 1.66-.45 2.2-.22 4.15 1.78 3.55 3.56 6.37 6.78 9.81 11.28 2.27 2.99 4.27 5.79 5.97 8.45 2.42 3.76 3.2 4.84 3.83 5.15.19.11.5.24 1.02.37.75.17 1.03.42 1.19 1.02.22.8-.3 1.48-1.4 1.78l-3.68.95-3.95 1.13c-1.4.38-2.18.11-2.41-.74-.18-.65-.03-.91.78-1.67.57-.48.79-.86.68-1.26-.15-.55-.77-1.62-3.55-5.71l-.81-1.18-13.65 3.72zm.3-3.64 11.28-3.08-.86-1.17c-2.92-4-4.95-6.68-7.09-9-.3-.3-.75-.77-1.34-1.36-.61 2.91-.79 4.04-1.22 7.18-.39 2.91-.53 4.19-.77 7.43z" class="st0"/><path d="M39.01 108.12c1.99-3.09 3.82-4.37 7.05-4.93 5.42-.96 8.87 1.55 9.87 7.18l1.24 7.06.36 2.05c.26 1.48.47 1.76 1.43 2.12l.51.18c.44.13.72.51.8.92.13.72-.39 1.39-1.21 1.53l-3.75.61-3.62.69c-.82.14-1.53-.31-1.66-1.03-.07-.41.11-.86.43-1.13l.42-.34c.51-.41.68-.65.71-1.07.04-.38 0-.9-.04-1.42l-.36-2.05-1.23-6.96c-.68-3.84-2.17-5.11-5.29-4.56-3.07.54-4.6 2.97-4.01 6.3l1.21 6.86.36 2.05c.1.56.23 1.02.4 1.36.17.39.48.6 1.03.77l.56.17c.4.14.72.51.8.92.13.72-.39 1.39-1.21 1.53l-3.59.58-3.83.73c-.82.14-1.58-.3-1.71-1.02-.07-.41.1-.92.43-1.13l.47-.35c.75-.55.87-1.05.62-2.48l-.36-2.05-1.53-8.7c-.29-1.64-.7-2.2-1.91-2.46-.82-.17-1.12-.38-1.21-.9-.14-.77.61-1.64 2.45-2.86 1.13-.78 2.15-1.28 2.71-1.37 1.11-.22 1.85.71 2.66 3.2zm28.11-4.22c2.21-2.94 4.14-4.07 7.4-4.39 5.48-.54 8.73 2.21 9.3 7.9l.71 7.14.2 2.07c.15 1.5.34 1.79 1.27 2.22l.49.21c.43.17.68.56.72.97.07.72-.49 1.35-1.32 1.44l-3.78.32-3.67.42c-.83.08-1.5-.43-1.58-1.15-.04-.41.18-.85.52-1.1l.44-.3c.54-.37.72-.59.79-1.02.07-.37.07-.9.07-1.42l-.21-2.07-.7-7.03c-.38-3.88-1.77-5.25-4.93-4.94-3.1.31-4.81 2.62-4.47 5.98l.69 6.93.2 2.07c.06.57.15 1.03.29 1.38.14.4.43.64.97.84l.54.21c.38.17.68.56.72.97.07.72-.49 1.35-1.32 1.44l-3.62.31-3.87.44c-.83.08-1.56-.42-1.63-1.14-.04-.41.17-.9.52-1.1l.49-.31c.79-.5.95-.98.8-2.43l-.2-2.07-.87-8.79c-.16-1.65-.53-2.25-1.72-2.6-.81-.23-1.09-.47-1.14-.98-.08-.78.73-1.59 2.66-2.67 1.18-.69 2.24-1.11 2.81-1.17 1.14-.11 1.81.87 2.43 3.42zm35.77 1.99c-.31-3.32-2.24-5.13-5.36-5.03-1.25.04-2.02.38-3.18 1.3-1.62 1.35-2.03 1.57-3.02 1.6-1.4.04-2.41-.65-2.44-1.69-.07-2.13 3.83-3.87 8.87-4.02 6.91-.22 11.27 2.92 11.44 8.22l.23 7.38c.11 3.53.17 3.79 1.23 4.23l.68.29c.42.19.75.6.76 1.12.03.83-.58 1.32-1.67 1.35l-4.94.16c-1.3.04-1.63-.47-1.77-3.22-1.88 2.87-4.03 4.03-7.46 4.14-4.88.15-8.4-2.65-8.53-6.8-.16-5.09 5.08-8.74 13.03-8.99.46-.04 1.19-.01 2.13-.04zm.24 2.69c-.57-.03-1.04-.02-1.35-.01-4.62.15-7.62 2.53-7.5 6.06.07 2.23 1.57 3.64 3.75 3.57 2.96-.09 5.32-2.87 5.21-6.14l-.11-3.48zm38.04-21.49 4.83.22c.93.05 1.62.72 1.58 1.55-.03.52-.42 1.02-1.01 1.19l-.58.18c-1.01.31-1.24.66-1.35 1.8-.04.62-.07 1.25-.11 1.92-.11.98-.15 1.66-.17 2.07l-.89 15.67c-.35 6.18-2.54 9.02-7.75 9.97-1.31.24-2.52.32-3.76.25-6.23-.36-10.3-3.76-10.04-8.38.2-3.58 2.96-6.18 6.38-5.99 1.92.11 3.31 1.23 3.23 2.68-.05.88-.54 1.32-1.65 1.62l-1.38.39c-1.01.31-1.68 1.21-1.75 2.35-.13 2.18 1.8 3.96 4.4 4.1 3.32.19 5.16-1.94 5.41-6.3l.96-16.76c.02-.41.01-1.09.07-2.08.04-.67.07-1.3.11-1.92.01-1.14-.22-1.57-1.14-1.94l-.61-.24c-.51-.19-.84-.78-.81-1.3.05-.83.76-1.41 1.74-1.36l4.29.31zm31.52 26.74c-.82 6.71-7.07 11.18-14.35 10.3-7.12-.87-11.98-6.54-11.18-13.1.81-6.66 7.12-11.18 14.4-10.29 6.97.85 11.92 6.64 11.13 13.09zm-6.44-.89c.64-5.21-1.39-8.81-5.26-9.28-3.82-.47-6.71 2.64-7.36 7.95-.67 5.52 1.29 9.17 5.11 9.63 4.03.5 6.81-2.57 7.51-8.3zm2.48-19.86-7.16 4.57c-.57.35-1.01.51-1.37.46-.52-.06-.93-.53-.87-1 .03-.26.23-.55.48-.88l3.63-4.9c.63-.87.96-1.03 1.74-.99l3.17.23.21.02c.93.11 1.3.53 1.21 1.25-.06.47-.31.81-1.04 1.24zm15.1 14.72c2.98-2.16 5.15-2.68 8.36-2.04 5.4 1.08 7.71 4.67 6.59 10.27l-1.4 7.03-.41 2.04c-.29 1.48-.2 1.81.56 2.5l.41.35c.37.29.49.73.41 1.14-.14.71-.87 1.15-1.68.99l-3.71-.79-3.63-.67c-.82-.16-1.31-.85-1.17-1.56.08-.41.42-.76.82-.9l.51-.16c.62-.19.87-.36 1.05-.74.17-.34.32-.84.48-1.34l.41-2.04 1.38-6.93c.76-3.82-.16-5.54-3.27-6.17-3.06-.61-5.36 1.1-6.02 4.42l-1.37 6.83-.41 2.04c-.11.56-.15 1.03-.12 1.41.02.43.22.73.68 1.09l.46.36c.32.27.49.73.41 1.14-.14.71-.87 1.15-1.68.99l-3.56-.76-3.83-.71c-.82-.16-1.37-.86-1.22-1.57.08-.41.43-.82.82-.9l.56-.15c.9-.25 1.19-.66 1.48-2.09l.41-2.04 1.73-8.67c.33-1.63.14-2.3-.89-2.99-.7-.46-.91-.76-.81-1.27.15-.76 1.16-1.3 3.32-1.77 1.34-.32 2.47-.41 3.03-.3 1.1.21 1.45 1.34 1.3 3.96zm33.6 12.56c.71-3.26-.57-5.57-3.57-6.42-1.2-.34-2.03-.26-3.43.26-1.96.79-2.41.88-3.36.61-1.35-.38-2.1-1.36-1.81-2.36.59-2.05 4.83-2.51 9.67-1.13 6.64 1.9 9.84 6.22 8.39 11.31l-2.03 7.1c-.97 3.4-.99 3.66-.12 4.4l.56.48c.34.31.53.8.39 1.3-.23.8-.96 1.08-2.01.78l-4.75-1.36c-1.25-.36-1.41-.94-.7-3.6-2.67 2.16-5.07 2.6-8.37 1.66-4.7-1.34-7.19-5.08-6.05-9.08 1.4-4.9 7.5-6.77 15.15-4.59.46.13 1.14.38 2.04.64zm-.59 2.64c-.53-.21-.98-.34-1.28-.42-4.45-1.27-8.02.09-8.99 3.48-.61 2.15.39 3.95 2.48 4.55 2.85.81 5.94-1.11 6.84-4.26l.95-3.35zM58.57 41.78v1.26c0 .08 0 .22.01.43v.41c.01.26.03.3.27.4l.1.06c.14.06.2.15.2.26 0 .18-.16.31-.36.31l-.95-.01-.98.01c-.2 0-.36-.13-.36-.31 0-.11.08-.21.2-.26l.11-.06c.21-.11.27-.14.27-.4v-.41l.01-.43v-3.67l-.01-.45v-.42c0-.24-.07-.33-.27-.4l-.14-.04c-.11-.03-.19-.16-.19-.27 0-.18.14-.31.36-.31h3.66c1.08 0 1.72.27 2.1.87.17.27.25.57.25.88 0 .43-.17.87-.47 1.2-.31.33-.51.48-1.11.77.55.64.73.95 1.03 1.57.14.28.29.61.45.98.14.35.26.49.4.57l.25.12c.06.05.11.11.11.2 0 .16-.14.27-.33.27l-.98-.01-1.07.01c-.27 0-.41-.1-.41-.28 0-.14.03-.18.25-.3.14-.08.2-.16.2-.27 0-.28-.27-.9-.72-1.61-.19-.3-.32-.48-.64-.88-.55.12-.69.14-1.24.21zm0-.68c1.83-.18 2.68-.72 2.68-1.71 0-.8-.62-1.26-1.7-1.26-.73 0-.98.17-.98.71v2.26zm8.31.14v1.97c0 .97.08 1.03 1.18 1.03 1.2 0 1.65-.13 2.13-.62.2-.2.29-.24.42-.24.18 0 .29.12.29.31 0 .1-.02.23-.06.41l-.09.49c-.05.25-.15.31-.48.31h-5.1c-.2 0-.36-.13-.36-.31 0-.11.08-.21.2-.26l.11-.06c.21-.11.25-.14.27-.4v-.41c0-.21.01-.36.01-.43v-3.67c0-.09-.01-.23-.01-.45v-.41c-.01-.24-.04-.31-.27-.4l-.11-.04a.288.288 0 0 1-.19-.27c0-.18.14-.31.35-.31h4.81c.45 0 .56.22.56 1.13 0 .18-.12.3-.29.3-.17 0-.2-.02-.41-.29-.3-.37-.73-.49-1.77-.49-1.05 0-1.2.1-1.2.75v1.68h1.81c.21 0 .38-.06.5-.16l.17-.15c.05-.03.1-.06.17-.06.22 0 .29.13.29.6v.5c0 .17-.14.3-.31.3-.11 0-.16-.03-.3-.17-.16-.14-.26-.19-.49-.19h-1.83zm7.52.89v.9l.01.43v.41c0 .26.03.3.27.4l.1.06c.14.06.2.15.2.26 0 .18-.16.31-.36.31l-.91-.01-1.02.01c-.2 0-.36-.13-.36-.31 0-.11.08-.21.19-.26l.14-.06c.21-.07.27-.16.27-.4v-.41l.01-.43v-3.67l-.01-.45v-.41c0-.24-.07-.33-.27-.4l-.14-.04c-.11-.03-.19-.16-.19-.27 0-.18.14-.31.36-.31l.99.01.95-.01c.2 0 .36.13.36.31 0 .11-.07.21-.19.27l-.1.04-.14.06c-.09.03-.13.16-.13.34v.41l-.01.45v1.89c.86-.68 1.18-.95 1.71-1.47.31-.29.6-.6.89-.92.24-.25.33-.42.33-.54 0-.12-.06-.19-.25-.28-.16-.08-.21-.16-.21-.28 0-.19.12-.28.41-.28.1 0 .21.01.32.02.21.02.45.02.7.01.11-.01.23-.01.34-.01.38 0 .51.08.51.29 0 .14-.08.23-.3.35-.37.18-.47.27-.91.8-.36.45-.6.7-1.45 1.51.49.52.67.75 1.01 1.18.52.68 1.03 1.44 1.36 2.09.19.37.28.48.5.58.25.12.3.17.3.32 0 .17-.13.28-.32.28l-.98-.01-.98.01c-.28 0-.45-.11-.45-.29 0-.13.04-.19.22-.31.11-.06.16-.11.16-.19 0-.41-.88-1.7-1.92-2.83l-1.01.85zm77.25 2.76-.99.01c-.2 0-.36-.13-.36-.31 0-.11.08-.21.19-.26l.13-.06c.21-.07.27-.16.27-.4v-.41l.01-.43v-3.67l-.01-.45v-.41c0-.24-.06-.32-.27-.4l-.12-.04a.298.298 0 0 1-.2-.27c0-.18.16-.31.36-.31l.93.01 1.01-.01c.2 0 .35.13.35.31 0 .11-.07.22-.19.27l-.11.04c-.22.09-.27.16-.27.4v.41l-.01.45v3.67l.01.43v.41c0 .26.06.29.27.4l.11.06c.12.04.19.15.19.26 0 .18-.14.31-.35.31l-.95-.01zm8.95-2.61c.01.08.02.16.02.25 0 1.47-1.31 2.52-3.12 2.52-1.58 0-2.98-.85-2.98-1.79 0-.27.18-.47.41-.47.19 0 .32.09.48.33.39.61.46.68.78.88.37.22.83.34 1.29.34 1 0 1.74-.56 1.74-1.32 0-.68-.5-1.01-1.88-1.27-1.28-.23-1.95-.59-2.31-1.22a1.7 1.7 0 0 1-.23-.9c0-1.36 1.18-2.3 2.88-2.3.48 0 .9.08 1.39.23.4.13.75.3.85.41.11.13.14.32.14.95 0 .26-.09.39-.28.39-.14 0-.22-.06-.36-.27-.48-.75-1.03-1.07-1.81-1.07-.77 0-1.36.47-1.36 1.08 0 .23.09.49.22.62.19.21.49.39.83.48.19.06.57.13 1.15.28.98.23 1.52.55 1.86 1.06.16.24.26.51.29.79zm2.94-4.79.9-.01c.2 0 .36.13.36.31 0 .11-.07.21-.2.27l-.1.04c-.23.1-.27.15-.27.4v.41l-.01.45v4.37c0 .38.14.49.62.5l.46.01c.08.01.16.01.23.01.83 0 1.22-.11 1.59-.45.27-.24.41-.37.42-.38.06-.04.12-.07.2-.07.18 0 .3.12.3.29 0 .13-.04.33-.12.6l-.11.38c-.06.18-.2.27-.46.27h-4.83c-.2 0-.36-.13-.36-.31 0-.11.07-.2.2-.26l.1-.06c.23-.1.27-.14.27-.4v-.41l.01-.43v-3.67l-.01-.45v-.4c0-.24-.07-.33-.27-.4l-.14-.04c-.11-.03-.19-.16-.19-.27 0-.18.14-.31.34-.31l1.07.01z" class="st0"/><path fill="#ee2b4a" fill-rule="evenodd" d="M133.39 33.72c-.43-1.26-.51-2.31-.46-2.99.28-.07.8-.25.99-.61-.29.13-.61.08-.9.05.02-.06.13-.12.06-.16 1.39-1.3 1.19-2.49 1.12-2.68.01-.16.11-.57.09-1.08-.01-.51-.12-.5-.09-2.53.01-.69-.04-1.34-.13-2 0-.01.01-.02.01-.02 1.17-1.11 3.63-5 .8-9.19-.01-.01-.02-.03-.03-.04v.08c-.69-1.19-3.25-4.55-7.39-6.6-.54-.34-1.12-.63-1.75-.84-.78-.25-1.52-.41-2.15-.51-1.66-.31-3.39-.4-5.27-.12-1.33-.33-3.26-.58-3.8-.53-.83.07-2.01.32-2.35.53.24-.29.45-.41.45-.41s-1.02.08-2.09 1.32c-.1-.12-.28-.35-.51-.62-.67-.94-2.19-2.94-3.15-3.31.36.3 1.32 1.24 2.08 2.19-2.01-1.85-5.61-4.32-9.6-1.75-2.73-.04-5.56 1.42-6.55 4.88-.04.04-.09.1-.13.14-1.08.55-2.37 1.77-2.97 3.42-.59 1.63-.45 3.38.41 5.21.32 1.26.93 2.64 1.92 4.15-1.06-1.04-1.52-1.99-1.92-2.52.09.41.31.86.6 1.31-.19.93.78 2.19 1.97 3.07-1.85-.58-2.92-1.82-3.8-3.44.54 1.78 1.66 2.85 2.89 3.47.37.24.71.5.96.46.12.02.25.02.32.02.29.08.58.15.95.2-.06.01-.03.03 0 .04.04.02.05.02.09.03.02.06.03.04.05.06-1.09.07-2.3.43-3.04 1.41.89-1.04 2.26-1.26 3.22-1.19.02.02.04.04.06.07-1.38.13-3.07 1.84-3.04 2.68C92 24.1 92.56 24 92.56 24c-.52.58-1.56 2.39-1.42 3.48.4-1.88 1.59-3.76 3.26-4.23v.01c-1.52.69-2.56 3.55-2.23 4.99-.19-1.26 1.11-3.37 1.82-3.58.03-.01.12 0 .07-.01-.42 2.87.44 6.63 2.44 9 3.72 4.39 7.28 3.82 7.28 3.82s.02-.08.06-.08c.06.3.13.59.15.86.16 2.54-1.24 8.37-3.1 11.25-2 3.11-4.39 4.82-7.79 8.38-1.61 1.69-3.67 7.04-4.45 11.93.65-.84 4.22-6.13 8.85-5.83 9.74.71 5.14 12.76 28.46 13.52-7.04-8.14-11.44-16.34-12.31-18.42-.83-2.08.84-5.19 2.05-7.52s2.54-3.27 4.79-2.35c4.28 1.81 5.92.61 6.91-.26.98-.86.65-2.72.65-2.72s1.56-.89 1.87-.99c.16-.38.22-1.32-.26-1.94 1.24-.76 1.34-1.66 1.26-1.86-.34-.65-.13-1.41 0-1.91s2.11-.72 2.67-.94c.55-.22 1.18-.78 1.2-1.4.03-.62-.29-1.3-.54-1.66-.35-.47-.55-.91-.86-1.82zM89.81 10.36c.56-1.55 1.8-2.77 2.73-3.34-1.52 1.67-3.15 4.14-2.64 7.61-.52-1.49-.57-2.93-.09-4.27zm.95 8.2c.6.9 1.46 1.79 2.18 2.4.19.24.38.49.59.73-1.17-.66-2.62-2.02-2.77-3.13z" clip-rule="evenodd"/></svg>